:SAMPLES-PER-SECOND 30
:FULLY-SPECIFIED
:DEGREES
208
root  10.46288858 39.01755566 -3.026822233 -4.385009766 -60.28179932 7.08001709
lowerback  20.62070084 -1.856609941 4.362709999
upperback  6.469520092 -2.472850084 -8.257829666
thorax  -4.991730213 -1.36432004 -11.03470039
lowerneck  -0.218897 4.411910057 3.16782999
upperneck  8.100500107 5.146820068 7.381010056
head  2.496779919 2.787559986 1.938330054
lclavicle  0 -9.442270133e-015 7.951389973e-016
lhumerus  20.31030083 -17.65449905 64.83049774
lradius  2.271887137e-031 -2.703215284e-031 130.0449982
lwrist  0 -1.765562519e-031 11.50969982
lhand  -1.496451383e-031 -27.76390076 20.11240005
lfingers  90 7.125020027 -90
lthumb  89.89689403 5.08795885 91.16245106
rclavicle  0 -9.442270133e-015 7.951389973e-016
rhumerus  27.65390015 10.90100002 -82.8423996
rradius  -2.169944474e-031 2.785710863e-031 127.9169998
rwrist  3.531125038e-031 -0 -3.651880026
rhand  -7.920061211e-032 -33.2840004 9.303460121
rfingers  -90 -7.125020027 -90
rthumb  -92.93752616 -24.25625642 -97.11982154
rfemur  -36.42900085 15.91189957 -0.1815239936
rtibia  -0 0 69.58070374
rfoot  -0 -8.499380112 -12.82429981
rtoes  5.373923086 19.29304026 -105.8922705
lfemur  -33.05649948 6.773240089 -12.72399998
ltibia  -0 0 68.21559906
lfoot  4.439779664e-032 -6.188630104 -2.587759972
ltoes  -4.250644065 -19.5611806 -102.515957
209
root  10.52844431 38.8308878 -3.042422129 -4.208984375 -59.54980087 6.739990234
lowerback  20.20260048 -2.027260065 4.388999939
upperback  6.482749939 -2.70559001 -8.450960159
thorax  -4.821609974 -1.473199964 -11.21249962
lowerneck  0.06985549629 4.514619827 3.276220083
upperneck  7.967440128 5.291540146 7.571119785
head  2.394999981 2.855540037 1.970770001
lclavicle  0 -9.442270133e-015 7.951389973e-016
lhumerus  20.55400085 -18.26709938 64.86139679
lradius  2.259833544e-031 -2.713299908e-031 129.7899933
lwrist  -7.062250077e-031 -1.765562519e-031 10.94919968
lhand  -1.496451383e-031 -27.76390076 20.11240005
lfingers  90 7.125020027 -90
lthumb  89.89689403 5.08795885 91.16245106
rclavicle  0 -9.442270133e-015 7.951389973e-016
rhumerus  27.84009933 10.87660027 -83.09600067
rradius  -2.174463e-031 2.782185238e-031 128.0099945
rwrist  1.412450015e-030 -1.765562519e-031 -3.792330027
rhand  -7.920061211e-032 -33.2840004 9.303460121
rfingers  -90 -7.125020027 -90
rthumb  -92.93752616 -24.25625642 -97.11982154
rfemur  -36.90100098 16.61720085 -0.9371979833
rtibia  -0 0 67.54340363
rfoot  -0 -10.06620026 -12.57569981
rtoes  5.373923086 19.29304026 -105.8922705
lfemur  -31.4822998 6.015309811 -11.52789974
ltibia  -0 0 69.59339905
lfoot  4.439737921e-032 -6.18366003 -1.851439953
ltoes  -4.250644065 -19.5611806 -102.515957
210
root  10.57651099 38.62511042 -3.042733388 -4.057983398 -58.82339859 6.476989746
lowerback  19.68790054 -2.163249969 4.366730213
upperback  6.47480011 -2.898509979 -8.609210014
thorax  -4.612999916 -1.560660005 -11.33220005
lowerneck  0.3036699891 4.542729855 3.39289999
upperneck  7.911789894 5.338089943 7.634049892
head  2.334840059 2.87590003 1.962700009
lclavicle  0 -9.442270133e-015 7.951389973e-016
lhumerus  20.75569916 -18.82979965 65.00669861
lradius  2.249066507e-031 -2.722231416e-031 129.5630035
lwrist  0 -1.765562519e-031 10.81719971
lhand  -1.496451383e-031 -27.76390076 20.11240005
lfingers  90 7.125020027 -90
lthumb  89.89689403 5.08795885 91.16245106
rclavicle  0 -9.442270133e-015 7.951389973e-016
rhumerus  28.03249931 10.76939964 -83.35820007
rradius  -2.179509667e-031 2.778233548e-031 128.1139984
rwrist  1.412450015e-030 -0 -3.794150114
rhand  -7.920061211e-032 -33.2840004 9.303460121
rfingers  -90 -7.125020027 -90
rthumb  -92.93752616 -24.25625642 -97.11982154
rfemur  -37.3030014 17.45910072 -1.81151998
rtibia  -0 0 65.26709747
rfoot  -0 -11.05809975 -11.39449978
rtoes  5.373923086 19.29304026 -105.8922705
lfemur  -29.60659981 5.138000011 -10.42409992
ltibia  -0 0 70.08370209
lfoot  4.696675951e-032 -5.811900139 0.01373010036
ltoes  -4.250644065 -19.5611806 -102.515957
211
root  10.6052226 38.38044414 -3.030222232 -4.419006348 -58.20780182 6.692016602
lowerback  19.21999931 -2.176700115 4.079269886
upperback  6.475080013 -2.981019974 -8.771769524
thorax  -4.384729862 -1.593379974 -11.32439995
lowerneck  0.3617619872 4.52286005 3.339720011
upperneck  8.049360275 5.294939995 7.772099972
head  2.366600037 2.858750105 2.018369913
lclavicle  0 -9.442270133e-015 7.951389973e-016
lhumerus  21.02160072 -19.14189911 65.34529877
lradius  2.234066227e-031 -2.734555198e-031 129.2480011
lwrist  0 -0 11.59440041
lhand  -1.496451383e-031 -27.76390076 20.11240005
lfingers  90 7.125020027 -90
lthumb  89.89689403 5.08795885 91.16245106
rclavicle  0 -9.442270133e-015 7.951389973e-016
rhumerus  28.25510025 10.56900024 -83.46929932
rradius  -2.180819027e-031 2.777205863e-031 128.1410065
rwrist  7.062250077e-031 -1.765562519e-031 -3.57923007
rhand  -7.920061211e-032 -33.2840004 9.303460121
rfingers  -90 -7.125020027 -90
rthumb  -92.93752616 -24.25625642 -97.11982154
rfemur  -37.57590103 18.45490074 -2.994669914
rtibia  -0 0 62.98469925
rfoot  -0 -11.55140018 -9.887350082
rtoes  5.373923086 19.29304026 -105.8922705
lfemur  -27.16130066 4.199629784 -9.694910049
ltibia  -0 0 69.54589844
lfoot  5.557132491e-032 -6.857059956 1.596449971
ltoes  -4.250644065 -19.5611806 -102.515957
212
root  10.61706693 38.07600126 -3.015155492 -4.606994629 -57.75450134 6.690002441
lowerback  18.66819954 -2.211110115 3.744810104
upperback  6.495999813 -3.082520008 -8.799710274
thorax  -4.08480978 -1.63132 -11.12650013
lowerneck  0.1255639941 4.636030197 2.890310049
upperneck  8.367770195 5.399419785 8.07518959
head  2.493350029 2.919840097 2.214309931
lclavicle  0 -9.442270133e-015 7.951389973e-016
lhumerus  21.2329998 -19.0272007 65.72840118
lradius  2.216888806e-031 -2.748499238e-031 128.8890076
lwrist  -7.062250077e-031 1.765562519e-031 11.99650002
lhand  -1.496451383e-031 -27.76390076 20.11240005
lfingers  90 7.125020027 -90
lthumb  89.89689403 5.08795885 91.16245106
rclavicle  0 -9.442270133e-015 7.951389973e-016
rhumerus  28.62290001 10.63239956 -83.39720154
rradius  -2.180479528e-031 2.777472424e-031 128.1340027
rwrist  7.062250077e-031 -1.765562519e-031 -3.446899891
rhand  -7.920061211e-032 -33.2840004 9.303460121
rfingers  -90 -7.125020027 -90
rthumb  -92.93752616 -24.25625642 -97.11982154
rfemur  -37.90060043 19.60770035 -4.095910072
rtibia  -0 0 60.97520065
rfoot  -0 -13.97410011 -7.178100109
rtoes  5.373923086 19.29304026 -105.8922705
lfemur  -24.2784996 3.256489992 -8.913649559
ltibia  -0 0 68.01529694
lfoot  4.465034241e-032 -8.678999901 2.912709951
ltoes  -4.250644065 -19.5611806 -102.515957
213
root  10.62739965 37.75977788 -2.988555488 -4.656005859 -57.39339828 6.57598877
lowerback  18.05120087 -2.224179983 3.508529902
upperback  6.482860088 -3.13560009 -8.838279724
thorax  -3.779390097 -1.646479964 -11.01609993
lowerneck  -0.07572989911 4.728700161 2.502099991
upperneck  8.642820358 5.480169773 8.389479637
head  2.601639986 2.968729973 2.40279007
lclavicle  0 -9.442270133e-015 7.951389973e-016
lhumerus  21.35440063 -19.01350021 66.12969971
lradius  2.19851481e-031 -2.763218534e-031 128.5070038
lwrist  -7.062250077e-031 -1.765562519e-031 11.98600006
lhand  -1.496451383e-031 -27.76390076 20.11240005
lfingers  90 7.125020027 -90
lthumb  89.89689403 5.08795885 91.16245106
rclavicle  0 -9.442270133e-015 7.951389973e-016
rhumerus  28.92130089 10.62790012 -83.36799622
rradius  -2.178345631e-031 2.779146334e-031 128.0899963
rwrist  7.062250077e-031 -3.531125038e-031 -3.290149927
rhand  -7.920061211e-032 -33.2840004 9.303460121
rfingers  -90 -7.125020027 -90
rthumb  -92.93752616 -24.25625642 -97.11982154
rfemur  -38.32249832 20.33419991 -4.89508009
rtibia  -0 0 59.57020187
rfoot  -4.56068958e-032 -14.57579994 -6.211629868
rtoes  5.373923086 19.29304026 -105.8922705
lfemur  -21.16460037 2.277250051 -8.186360359
ltibia  -0 0 65.57479858
lfoot  4.54030991e-032 -13.55150032 2.301450014
ltoes  -4.250644065 -19.5611806 -102.515957
214
root  10.64175583 37.44977816 -2.950177793 -4.939025879 -56.96760178 6.684020996
lowerback  17.47019958 -2.122720003 3.472170115
upperback  6.358520031 -3.021460056 -9.077289581
thorax  -3.592560053 -1.586809993 -11.30239964
lowerneck  0.2867839932 4.633339882 2.690890074
upperneck  8.850110054 5.324560165 8.614509583
head  2.610780001 2.898449898 2.436500072
lclavicle  0 -9.442270133e-015 7.951389973e-016
lhumerus  21.12789917 -19.94779968 66.62660217
lradius  2.190015963e-031 -2.769959227e-031 128.3309937
lwrist  -7.062250077e-031 -1.765562519e-031 11.73630047
lhand  -1.496451383e-031 -27.76390076 20.11240005
lfingers  90 7.125020027 -90
lthumb  89.89689403 5.08795885 91.16245106
rclavicle  0 -9.442270133e-015 7.951389973e-016
rhumerus  28.76160049 10.10070038 -83.52539825
rradius  -2.176259328e-031 2.780780354e-031 128.0469971
rwrist  3.531125038e-031 -1.765562519e-031 -3.049279928
rhand  -7.920061211e-032 -33.2840004 9.303460121
rfingers  -90 -7.125020027 -90
rthumb  -92.93752616 -24.25625642 -97.11982154
rfemur  -38.59540176 21.10289955 -6.123239994
rtibia  -0 0 59.07440186
rfoot  -4.601731573e-032 -16.42639923 -6.363729954
rtoes  5.373923086 19.29304026 -105.8922705
lfemur  -18.11569977 1.289829969 -7.780049801
ltibia  -0 0 62.53279877
lfoot  4.674248464e-032 -19.21279907 -1.549579978
ltoes  -4.250644065 -19.5611806 -102.515957
215
root  10.6679999 37.13088749 -2.897666758 -5.20098877 -56.47000122 6.744995117
lowerback  16.84880066 -2.052350044 3.538530111
upperback  6.271080017 -2.925400019 -9.284270287
thorax  -3.348200083 -1.531620026 -11.61019993
lowerneck  0.7704780102 4.500400066 2.658879995
upperneck  8.981080055 5.129670143 8.954950333
head  2.565239906 2.799360037 2.539920092
lclavicle  0 -9.442270133e-015 7.951389973e-016
lhumerus  21.33539963 -20.27059937 66.64749908
lradius  2.179800431e-031 -2.778005421e-031 128.1199951
lwrist  -1.412450015e-030 -0 12.15960026
lhand  -1.496451383e-031 -27.76390076 20.11240005
lfingers  90 7.125020027 -90
lthumb  89.89689403 5.08795885 91.16245106
rclavicle  0 -9.442270133e-015 7.951389973e-016
rhumerus  28.62479973 9.596150398 -83.55180359
rradius  -2.174851973e-031 2.781881186e-031 128.0180054
rwrist  1.059337512e-030 -3.531125038e-031 -2.787499905
rhand  -7.920061211e-032 -33.2840004 9.303460121
rfingers  -90 -7.125020027 -90
rthumb  -92.93752616 -24.25625642 -97.11982154
rfemur  -39.15520096 20.75670052 -6.541090012
rtibia  -0 0 59.13529968
rfoot  -0 -15.9296999 -8.470040321
rtoes  5.373923086 19.29304026 -105.8922705
lfemur  -15.52740002 0.5605419874 -7.533390045
ltibia  -0 0 59.45660019
lfoot  4.815567679e-032 -23.5673008 -4.575099945
ltoes  -4.250644065 -19.5611806 -102.515957
216
root  10.71962221 36.77644504 -2.868711104 -5.197021484 -55.8946991 6.588989258
lowerback  16.3125 -2.107170105 3.487760067
upperback  6.163809776 -2.995009899 -9.271499634
thorax  -3.192859888 -1.560979962 -11.55080032
lowerneck  1.121889949 4.425680161 2.138299942
upperneck  9.101519585 5.014530182 9.368309975
head  2.52380991 2.729799986 2.759740114
lclavicle  0 -9.442270133e-015 7.951389973e-016
lhumerus  21.13369942 -20.59930038 66.94309998
lradius  2.179121944e-031 -2.778537671e-031 128.1060028
lwrist  -7.062250077e-031 -1.765562519e-031 12.00650024
lhand  -1.496451383e-031 -27.76390076 20.11240005
lfingers  90 7.125020027 -90
lthumb  89.89689403 5.08795885 91.16245106
rclavicle  0 -9.442270133e-015 7.951389973e-016
rhumerus  28.65810013 9.500849724 -83.41660309
rradius  -2.171548429e-031 2.784460712e-031 127.9499969
rwrist  7.062250077e-031 -0 -2.386699915
rhand  -7.920061211e-032 -33.2840004 9.303460121
rfingers  -90 -7.125020027 -90
rthumb  -92.93752616 -24.25625642 -97.11982154
rfemur  -39.6772995 20.33600044 -7.150080204
rtibia  -0 0 59.85229874
rfoot  -0 -16.30960083 -8.085169792
rtoes  5.373923086 19.29304026 -105.8922705
lfemur  -13.66469955 0.1863020062 -7.208899975
ltibia  -0 0 56.82329941
lfoot  9.866004757e-032 -26.52099991 -7.169239998
ltoes  -4.250644065 -19.5611806 -102.515957
